<?xml version="1.0" encoding="UTF-8"?>
<svg width="424px" height="434px" viewBox="0 0 424 434" version="1.1" xmlns="http://www.w3.org/2000/svg" xmlns:xlink="http://www.w3.org/1999/xlink">
    <!-- Generator: Sketch 44.1 (41455) - http://www.bohemiancoding.com/sketch -->
    <title>logo-vertical</title>
    <desc>Created with Sketch.</desc>
    <defs></defs>
    <g id="phppr.org" stroke="none" stroke-width="1" fill="none" fill-rule="evenodd">
        <g id="logo-vertical">
            <g id="phppr-icon" transform="translate(12.000000, 12.000000)" fill="#0046AB">
                <path d="M44.6743875,62.2571076 C-29.6997264,148.074707 11.1885298,280.41261 11.4265953,281.871949 L18.4261777,282.011754 L18.3773437,279.708168 C16.3019006,146.588675 71.209538,157.801627 71.734503,157.777505 C124.55453,155.021645 135.066039,294.424741 135.163707,295.817747 L135.304104,297.91027 L208.292555,297.91027 L208.390223,295.745383 C210.776982,234.266187 253.549423,231.884208 256.32075,231.811844 C309.348321,231.811844 312.925408,293.152342 313.047493,295.769504 L313.139057,297.934392 L379.095418,297.934392 L379.595966,296.336355 C410.117188,199.495315 406.112804,124.23682 367.698794,72.6714843 C316.142345,3.50965097 219.76243,0 200.949149,0 C199.331524,0 198.421992,0.0241213125 198.421992,0.0241213125 C180.386333,0.0814220812 163.435431,1.66681567 147.597256,4.76835586 C192.525077,6.4936229 228.41711,43.3844431 228.41711,88.6407584 C228.41711,122.950568 207.788199,152.452318 178.232447,165.468421 C199.069577,150.191285 212.594161,125.56288 212.594161,97.782248 C212.594161,51.425954 174.936175,13.8467527 128.482696,13.8467527 C121.994124,13.8467527 115.677155,14.5799304 109.610442,15.9677951 C84.0902903,26.3637103 62.3875416,41.8179943 44.6743875,62.2571076 Z" id="Combined-Shape"></path>
            </g>
            <g id="phppr-text-logo" transform="translate(21.000000, 330.000000)">
                <g id="text">
                    <g id="PHPPR">
                        <path d="M342.160926,57.1072412 L326.367542,57.1072412 L326.367542,90.0846622 L306.54321,90.0846622 L306.54321,0 L342.293089,0 C353.659096,0 362.425768,2.37171075 368.593369,7.1152034 C374.76097,11.8586961 377.844724,18.5613569 377.844724,27.2233869 C377.844724,33.3693035 376.423994,38.4942611 373.582493,42.5984134 C370.740991,46.7025658 366.434748,49.9714019 360.663636,52.4050199 L381.479185,89.2184635 L381.479185,90.0846622 L360.201069,90.0846622 L342.160926,57.1072412 Z M326.367542,42.0725071 L342.35917,42.0725071 C347.337305,42.0725071 351.191997,40.8866517 353.923363,38.5149054 C356.654729,36.1431591 358.020392,32.8743229 358.020392,28.708299 C358.020392,24.4597794 356.731823,21.1187608 354.154647,18.6851429 C351.577471,16.2515249 347.623658,15.0347341 342.293089,15.0347341 L326.367542,15.0347341 L326.367542,42.0725071 Z" id="R" fill="#5CB483"></path>
                        <path d="M250.888159,58.3446679 L250.888159,90.0846622 L231.063827,90.0846622 L231.063827,0 L268.597895,0 C275.822799,0 282.177535,1.2374143 287.662295,3.71228004 C293.147054,6.18714577 297.365189,9.70346475 300.316827,14.2613425 C303.268464,18.8192202 304.744261,24.0060485 304.744261,29.821983 C304.744261,38.6490041 301.517332,45.6094595 295.063379,50.7035582 C288.609425,55.7976568 279.677551,58.3446679 268.26749,58.3446679 L250.888159,58.3446679 Z M250.888159,43.3099338 L268.597895,43.3099338 C273.840356,43.3099338 277.838223,42.1550137 280.591616,39.8451391 C283.345009,37.5352644 284.721685,34.2354929 284.721685,29.9457256 C284.721685,25.5322151 283.333996,21.9643372 280.558576,19.2419849 C277.783155,16.5196326 273.950489,15.1172297 269.060463,15.0347341 L250.888159,15.0347341 L250.888159,43.3099338 Z" id="P" fill="#5CB483"></path>
                        <path d="M19.824332,58.3446679 L19.824332,90.0846622 L0,90.0846622 L0,0 L37.5340686,0 C44.7589724,0 51.1137086,1.2374143 56.5984679,3.71228004 C62.0832272,6.18714577 66.3013623,9.70346475 69.2529999,14.2613425 C72.2046374,18.8192202 73.680434,24.0060485 73.680434,29.821983 C73.680434,38.6490041 70.4535056,45.6094595 63.9995519,50.7035582 C57.5455982,55.7976568 48.6137246,58.3446679 37.2036631,58.3446679 L19.824332,58.3446679 Z M19.824332,43.3099338 L37.5340686,43.3099338 C42.7765293,43.3099338 46.7743963,42.1550137 49.5277895,39.8451391 C52.2811827,37.5352644 53.6578587,34.2354929 53.6578587,29.9457256 C53.6578587,25.5322151 52.2701693,21.9643372 49.4947489,19.2419849 C46.7193286,16.5196326 42.8866627,15.1172297 37.9966364,15.0347341 L19.824332,15.0347341 L19.824332,43.3099338 Z" id="P" fill="#0046AB"></path>
                        <path d="M175.408776,58.3446679 L175.408776,90.0846622 L155.584444,90.0846622 L155.584444,0 L193.118512,0 C200.343416,0 206.698152,1.2374143 212.182912,3.71228004 C217.667671,6.18714577 221.885806,9.70346475 224.837444,14.2613425 C227.789081,18.8192202 229.264878,24.0060485 229.264878,29.821983 C229.264878,38.6490041 226.037949,45.6094595 219.583996,50.7035582 C213.130042,55.7976568 204.198168,58.3446679 192.788107,58.3446679 L175.408776,58.3446679 Z M175.408776,43.3099338 L193.118512,43.3099338 C198.360973,43.3099338 202.35884,42.1550137 205.112233,39.8451391 C207.865626,37.5352644 209.242302,34.2354929 209.242302,29.9457256 C209.242302,25.5322151 207.854613,21.9643372 205.079193,19.2419849 C202.303772,16.5196326 198.471106,15.1172297 193.58108,15.0347341 L175.408776,15.0347341 L175.408776,43.3099338 Z" id="P-Copy" fill="#0046AB"></path>
                        <polygon id="H" fill="#0046AB" points="153.785495 90.0846622 133.961163 90.0846622 133.961163 51.4769498 95.3037151 51.4769498 95.3037151 90.0846622 75.4793831 90.0846622 75.4793831 0 95.3037151 0 95.3037151 36.504087 133.961163 36.504087 133.961163 0 153.785495 0"></polygon>
                    </g>
                </g>
            </g>
        </g>
    </g>
</svg>