<?xml version="1.0" encoding="UTF-8"?>
<svg width="576px" height="109px" viewBox="0 0 576 109" version="1.1" xmlns="http://www.w3.org/2000/svg" xmlns:xlink="http://www.w3.org/1999/xlink">
    <!-- Generator: Sketch 44.1 (41455) - http://www.bohemiancoding.com/sketch -->
    <title>logo-horizontal</title>
    <desc>Created with Sketch.</desc>
    <defs></defs>
    <g id="phppr.org" stroke="none" stroke-width="1" fill="none" fill-rule="evenodd">
        <g id="logo-horizontal">
            <g id="logo" transform="translate(8.000000, 6.000000)">
                <g id="phppr-icon" fill="#0046AB">
                    <path d="M14.9659198,20.2648975 C-9.94940836,48.1988141 3.74815748,91.2752454 3.82790943,91.7502653 L6.17276953,91.7957722 L6.15641016,91.0459474 C5.46113672,47.7151056 23.8551952,51.364959 24.0310585,51.3571074 C41.7257675,50.4600658 45.247123,95.8362411 45.2798418,96.2896692 L45.326875,96.9707927 L69.7780059,96.9707927 L69.8107246,96.2661145 C70.6102891,76.2544301 84.9390567,75.4790877 85.8674512,75.455533 C103.631688,75.455533 104.830012,95.4220709 104.87091,96.2739661 L104.901584,96.9786443 L126.996965,96.9786443 L127.164649,96.4584779 C137.389258,64.9363946 136.047789,40.4395019 123.179096,23.654812 C105.907686,1.14240317 73.6204141,0 67.3179649,0 C66.7760606,0 66.4713672,0.00785156817 66.4713672,0.00785156817 C60.4294216,0.0265031607 54.7508693,0.542554094 49.4450808,1.55211583 C64.4959009,2.11369605 76.5197318,14.1217818 76.5197318,28.8528643 C76.5197318,40.0208225 69.6090468,49.6237411 59.7078697,53.8605263 C66.6883083,48.8877671 71.2190439,40.8711388 71.2190439,31.8284499 C71.2190439,16.7393206 58.6036187,4.50716448 43.041703,4.50716448 C40.8680317,4.50716448 38.7518469,4.74581626 36.7194982,5.1975709 C28.1702473,8.58147618 20.8998264,13.6118975 14.9659198,20.2648975 Z" id="Combined-Shape"></path>
                </g>
                <g id="phppr-text-logo" transform="translate(154.000000, 1.000000)">
                    <g id="text">
                        <g id="PHPPR">
                            <path d="M362.762239,60.2450017 L346.017944,60.2450017 L346.017944,95.0343689 L325,95.0343689 L325,0 L362.902358,0 C374.952706,0 384.247215,2.50202453 390.786164,7.50614865 C397.325112,12.5102728 400.594537,19.5812116 400.594537,28.7191774 C400.594537,35.2027817 399.088266,40.6093304 396.075679,44.9389856 C393.063092,49.2686408 388.497574,52.7170833 382.378986,55.2844165 L404.447827,94.1205769 L404.447827,95.0343689 L381.888567,95.0343689 L362.762239,60.2450017 Z M346.017944,44.3841833 L362.972418,44.3841833 C368.250284,44.3841833 372.337065,43.133171 375.232885,40.631109 C378.128705,38.1290469 379.576594,34.6806044 379.576594,30.285678 C379.576594,25.8037234 378.210441,22.2791323 375.478095,19.7117991 C372.745748,17.1444658 368.553878,15.8608184 362.902358,15.8608184 L346.017944,15.8608184 L346.017944,44.3841833 Z" id="R" fill="#5CB483"></path>
                            <path d="M265.99399,61.5504189 L265.99399,95.0343689 L244.976047,95.0343689 L244.976047,0 L284.77002,0 C292.429931,0 299.167282,1.3054041 304.982276,3.91625147 C310.797269,6.52709883 315.269376,10.2366222 318.39873,15.0449327 C321.528084,19.8532433 323.092737,25.3250621 323.092737,31.4605535 C323.092737,40.7725757 319.671517,48.1154738 312.828975,53.489468 C305.986432,58.8634621 296.516776,61.5504189 284.419721,61.5504189 L265.99399,61.5504189 Z M265.99399,45.6896005 L284.77002,45.6896005 C290.328126,45.6896005 294.566702,44.4712233 297.485876,42.0344324 C300.405049,39.5976415 301.864614,36.1165639 301.864614,31.5910952 C301.864614,26.935084 300.393373,23.1711689 297.450846,20.2992368 C294.508319,17.4273047 290.444891,15.9478467 285.260439,15.8608184 L265.99399,15.8608184 L265.99399,45.6896005 Z" id="P" fill="#5CB483"></path>
                            <path d="M21.0179436,61.5504189 L21.0179436,95.0343689 L0,95.0343689 L0,0 L39.7939733,0 C47.4538844,0 54.1912356,1.3054041 60.0062291,3.91625147 C65.8212226,6.52709883 70.2933292,10.2366222 73.4226831,15.0449327 C76.552037,19.8532433 78.1166905,25.3250621 78.1166905,31.4605535 C78.1166905,40.7725757 74.6954706,48.1154738 67.852928,53.489468 C61.0103855,58.8634621 51.5407289,61.5504189 39.4436742,61.5504189 L21.0179436,61.5504189 Z M21.0179436,45.6896005 L39.7939733,45.6896005 C45.3520795,45.6896005 49.5906557,44.4712233 52.5098292,42.0344324 C55.4290026,39.5976415 56.8885674,36.1165639 56.8885674,31.5910952 C56.8885674,26.935084 55.4173261,23.1711689 52.4747993,20.2992368 C49.5322724,17.4273047 45.468844,15.9478467 40.284392,15.8608184 L21.0179436,15.8608184 L21.0179436,45.6896005 Z" id="P" fill="#0046AB"></path>
                            <path d="M185.970037,61.5504189 L185.970037,95.0343689 L164.952093,95.0343689 L164.952093,0 L204.746067,0 C212.405978,0 219.143329,1.3054041 224.958322,3.91625147 C230.773316,6.52709883 235.245423,10.2366222 238.374777,15.0449327 C241.50413,19.8532433 243.068784,25.3250621 243.068784,31.4605535 C243.068784,40.7725757 239.647564,48.1154738 232.805021,53.489468 C225.962479,58.8634621 216.492822,61.5504189 204.395768,61.5504189 L185.970037,61.5504189 Z M185.970037,45.6896005 L204.746067,45.6896005 C210.304173,45.6896005 214.542749,44.4712233 217.461923,42.0344324 C220.381096,39.5976415 221.840661,36.1165639 221.840661,31.5910952 C221.840661,26.935084 220.36942,23.1711689 217.426893,20.2992368 C214.484366,17.4273047 210.420937,15.9478467 205.236485,15.8608184 L185.970037,15.8608184 L185.970037,45.6896005 Z" id="P-Copy" fill="#0046AB"></path>
                            <polygon id="H" fill="#0046AB" points="163.044831 95.0343689 142.026887 95.0343689 142.026887 54.3053537 101.041897 54.3053537 101.041897 95.0343689 80.0239533 95.0343689 80.0239533 0 101.041897 0 101.041897 38.5098061 142.026887 38.5098061 142.026887 0 163.044831 0"></polygon>
                        </g>
                    </g>
                </g>
            </g>
        </g>
    </g>
</svg>