<?xml version="1.0" encoding="UTF-8"?>
<svg width="889px" height="818px" viewBox="0 0 889 818" version="1.1" xmlns="http://www.w3.org/2000/svg" xmlns:xlink="http://www.w3.org/1999/xlink" style="background: #0046AB;">
    <!-- Generator: Sketch 44.1 (41455) - http://www.bohemiancoding.com/sketch -->
    <title>logo-vertical-white-blue-light</title>
    <desc>Created with Sketch.</desc>
    <defs></defs>
    <g id="phppr.org" stroke="none" stroke-width="1" fill="none" fill-rule="evenodd">
        <g id="logo-vertical-white-blue-light">
            <g transform="translate(195.000000, 155.000000)">
                <g id="text" transform="translate(0.500000, 391.977778)">
                    <g id="PHPPR" transform="translate(-0.000000, 0.000000)">
                        <path d="M446.063197,74.0790392 L425.473916,74.0790392 L425.473916,116.857076 L399.62963,116.857076 L399.62963,0 L446.235492,0 C461.052957,0 472.481761,3.07656349 480.522246,9.22978278 C488.56273,15.3830021 492.582912,24.077638 492.582912,35.3139515 C492.582912,43.2863834 490.730757,49.9344359 487.026391,55.2583082 C483.322025,60.5821805 477.708128,64.8224876 470.184531,67.9793566 L497.321032,115.73345 L497.321032,116.857076 L469.581498,116.857076 L446.063197,74.0790392 Z M425.473916,54.5761069 L446.32164,54.5761069 C452.81146,54.5761069 457.836688,53.0378251 461.397474,49.9612155 C464.95826,46.8846058 466.738626,42.6442988 466.738626,37.240167 C466.738626,31.7290228 465.058764,27.3950812 461.69899,24.2382122 C458.339216,21.0813431 453.184769,19.5029323 446.235492,19.5029323 L425.473916,19.5029323 L425.473916,54.5761069 Z" id="R" fill="#5CB483"></path>
                        <path d="M327.074092,75.6842188 L327.074092,116.857076 L301.229806,116.857076 L301.229806,0 L350.161654,0 C359.580508,0 367.864955,1.60516356 375.015243,4.81553884 C382.165531,8.02591412 387.664566,12.5872539 391.512512,18.499695 C395.360459,24.4121362 397.284403,31.1404468 397.284403,38.6848287 C397.284403,50.1351672 393.077569,59.1642122 384.663776,65.7722347 C376.249983,72.3802571 364.605813,75.6842188 349.730916,75.6842188 L327.074092,75.6842188 Z M327.074092,56.1812865 L350.161654,56.1812865 C356.996066,56.1812865 362.207945,54.6831338 365.797447,51.6867836 C369.38695,48.6904333 371.181674,44.4099971 371.181674,38.8453467 C371.181674,33.1201774 369.372592,28.4919558 365.754374,24.960543 C362.136155,21.4291302 357.139643,19.6099448 350.764688,19.5029323 L327.074092,19.5029323 L327.074092,56.1812865 Z" id="P" fill="#5CB483"></path>
                        <path d="M25.8442862,75.6842188 L25.8442862,116.857076 L0,116.857076 L0,0 L48.9318486,0 C58.3507023,0 66.6351489,1.60516356 73.7854372,4.81553884 C80.9357255,8.02591412 86.4347603,12.5872539 90.2827066,18.499695 C94.1306529,24.4121362 96.0545972,31.1404468 96.0545972,38.6848287 C96.0545972,50.1351672 91.8477638,59.1642122 83.4339708,65.7722347 C75.0201777,72.3802571 63.3760074,75.6842188 48.5011105,75.6842188 L25.8442862,75.6842188 Z M25.8442862,56.1812865 L48.9318486,56.1812865 C55.7662607,56.1812865 60.9781397,54.6831338 64.5676418,51.6867836 C68.1571439,48.6904333 69.9518681,44.4099971 69.9518681,38.8453467 C69.9518681,33.1201774 68.1427862,28.4919558 64.524568,24.960543 C60.9063498,21.4291302 55.9098378,19.6099448 49.534882,19.5029323 L25.8442862,19.5029323 L25.8442862,56.1812865 Z" id="P" fill="#8080FF"></path>
                        <path d="M228.674268,75.6842188 L228.674268,116.857076 L202.829982,116.857076 L202.829982,0 L251.76183,0 C261.180684,0 269.46513,1.60516356 276.615419,4.81553884 C283.765707,8.02591412 289.264742,12.5872539 293.112688,18.499695 C296.960634,24.4121362 298.884579,31.1404468 298.884579,38.6848287 C298.884579,50.1351672 294.677745,59.1642122 286.263952,65.7722347 C277.850159,72.3802571 266.205989,75.6842188 251.331092,75.6842188 L228.674268,75.6842188 Z M228.674268,56.1812865 L251.76183,56.1812865 C258.596242,56.1812865 263.808121,54.6831338 267.397623,51.6867836 C270.987125,48.6904333 272.78185,44.4099971 272.78185,38.8453467 C272.78185,33.1201774 270.972768,28.4919558 267.35455,24.960543 C263.736331,21.4291302 258.739819,19.6099448 252.364864,19.5029323 L228.674268,19.5029323 L228.674268,56.1812865 Z" id="P-Copy" fill="#8080FF"></path>
                        <polygon id="H" fill="#8080FF" points="200.484755 116.857076 174.640468 116.857076 174.640468 66.7754719 124.24411 66.7754719 124.24411 116.857076 98.399824 116.857076 98.399824 0 124.24411 0 124.24411 47.3527986 174.640468 47.3527986 174.640468 0 200.484755 0"></polygon>
                    </g>
                </g>
                <path d="M56.4288007,77.9520543 C-36.017807,184.846485 14.8060668,349.686621 15.1019809,351.504374 L23.8024227,351.678515 L23.7417223,348.809168 C21.1619582,182.995483 89.4118444,196.962339 90.0643729,196.932294 C155.719371,193.499593 168.785118,367.140136 168.906518,368.875264 L169.081032,371.481713 L259.805268,371.481713 L259.926668,368.785128 C262.893397,292.206622 316.059302,289.239627 319.504046,289.14949 C385.41702,289.14949 389.86332,365.555235 390.01507,368.815173 L390.128884,371.511758 L472.112271,371.511758 L472.73445,369.521243 C510.672158,248.896012 505.694731,155.154005 457.946331,90.9242054 C393.861954,4.77620264 274.062259,0.404580212 250.677455,0.404580212 C248.666757,0.404580212 247.536213,0.434625727 247.536213,0.434625727 C225.11799,0.505999584 204.048113,2.48076637 184.361351,6.34404586 C240.206381,8.49303907 284.819977,54.444257 284.819977,110.815539 C284.819977,153.551849 259.178357,190.299238 222.440721,206.512101 C248.341158,187.482895 265.15214,156.805745 265.15214,122.202181 C265.15214,64.4607657 218.343474,17.6521001 160.602059,17.6521001 C152.536801,17.6521001 144.684844,18.5653463 137.143954,20.2940712 C105.422547,33.2432266 78.4461521,52.4930879 56.4288007,77.9520543 Z" id="Combined-Shape" fill="#8080FF"></path>
            </g>
        </g>
    </g>
</svg>